<svg width="200" height="237" viewBox="0 0 200 237" fill="none" xmlns="http://www.w3.org/2000/svg">
<g clip-path="url(#clip0_1_171)">
<path d="M118.602 216.875L101.092 235.556C100.375 236.32 99.3607 236.32 98.6442 235.556L81.1341 216.875C80.5117 216.21 80.245 215.107 80.4592 214.071L97.9693 130.522C98.5083 127.945 101.223 127.945 101.767 130.522L119.276 214.071C119.49 215.101 119.229 216.205 118.602 216.875Z" fill="url(#paint0_linear_1_171)"/>
<path d="M97.751 78.0735L78.0989 97.7256C76.9286 98.8959 76.9286 100.793 78.0989 101.964L97.751 121.615C98.9213 122.786 100.819 122.786 101.989 121.615L121.641 101.964C122.812 100.793 122.812 98.8959 121.641 97.7256L101.989 78.0735C100.819 76.9032 98.9213 76.9032 97.751 78.0735Z" fill="url(#paint1_linear_1_171)"/>
<path d="M99.8581 0.0052271C44.8021 0.0052271 0.357817 44.1462 0.00217775 99.197C-0.295932 144.844 30.0432 183.452 71.6688 195.68C73.3682 196.176 75.1308 195.104 75.4916 193.373L81.3024 165.618C81.6267 164.059 80.7217 162.516 79.2103 162.014C52.9402 153.296 34.0598 128.396 34.3788 99.129C34.7606 63.7953 63.4994 34.9258 98.8331 34.3871C135.469 33.8276 165.338 63.351 165.338 99.8611C165.338 128.809 146.562 153.364 120.517 162.014C119.01 162.516 118.106 164.055 118.43 165.608L124.235 193.306C124.607 195.073 126.405 196.166 128.137 195.654C169.511 183.457 199.714 145.184 199.714 99.8559C199.714 44.7058 155.009 0 99.8581 0V0.0052271Z" fill="url(#paint2_linear_1_171)"/>
</g>
<defs>
<linearGradient id="paint0_linear_1_171" x1="28.733" y1="229.959" x2="119.554" y2="-198.505" gradientUnits="userSpaceOnUse">
<stop stop-color="#3350AD"/>
<stop offset="1" stop-color="#5E82F8"/>
</linearGradient>
<linearGradient id="paint1_linear_1_171" x1="28.7325" y1="229.96" x2="119.554" y2="-198.504" gradientUnits="userSpaceOnUse">
<stop stop-color="#3350AD"/>
<stop offset="1" stop-color="#5E82F8"/>
</linearGradient>
<linearGradient id="paint2_linear_1_171" x1="28.7334" y1="229.96" x2="119.554" y2="-198.504" gradientUnits="userSpaceOnUse">
<stop stop-color="#3350AD"/>
<stop offset="1" stop-color="#5E82F8"/>
</linearGradient>
<clipPath id="clip0_1_171">
<rect width="200" height="236.129" fill="white"/>
</clipPath>
</defs>
</svg>
