<svg width="200" height="43" viewBox="0 0 200 43" fill="none" xmlns="http://www.w3.org/2000/svg">
<g clip-path="url(#clip0_1_172)">
<path d="M63.5873 27.1667C63.1234 27.5817 62.5373 27.8014 61.9515 27.8014C61.3657 27.8014 60.7798 27.5817 60.3159 27.1667L52.2343 19.0606C51.5751 18.4014 51.3554 17.4005 51.7215 16.546C52.0876 15.6916 52.9179 15.1301 53.8454 15.1301H58.0209C58.8023 15.1301 59.4371 14.4953 59.4371 13.7385C59.4371 12.9817 58.8023 12.3226 58.0209 12.3226H49.744V27.193H45.0557V7.7085H58.1432C61.3909 7.78172 64.0521 10.4427 64.0521 13.7395C64.0521 16.6212 62.0012 19.0136 59.2904 19.5996L63.5882 23.8972C64.4915 24.8005 64.4915 26.2653 63.5882 27.1695L63.5873 27.1667Z" fill="#F9FAFF"/>
<path d="M80.9954 19.8177H73.8904V22.5031H86.9287C86.9287 25.106 84.819 27.2158 82.2162 27.2158H68.8115V7.6825H86.0743V12.1266H73.866L73.8904 15.105H80.9954V19.8177Z" fill="#F9FAFF"/>
<path d="M109.067 25.4168C108.836 26.49 107.861 27.2412 106.763 27.2412H99.4772C93.9128 27.2412 89.3786 22.6478 89.5964 17.0872C89.8003 11.8929 94.0895 7.70789 99.3561 7.70789H106.722C106.722 7.70789 106.73 7.71164 106.73 7.71539V12.4121C106.73 12.4121 106.726 12.4196 106.722 12.4196H99.3561C96.6322 12.4196 94.4142 14.5567 94.2839 17.2252C94.14 20.1529 96.5175 22.5529 99.4489 22.5529H106.779C108.243 22.5529 109.394 23.8966 109.067 25.4168Z" fill="#F9FAFF"/>
<path d="M131.025 27.1667C130.561 27.5817 129.975 27.8014 129.389 27.8014C128.803 27.8014 128.217 27.5817 127.753 27.1667L119.671 19.0606C119.012 18.4014 118.793 17.4005 119.159 16.546C119.525 15.6916 120.355 15.1301 121.283 15.1301H125.458C126.24 15.1301 126.874 14.4953 126.874 13.7385C126.874 12.9817 126.24 12.3226 125.458 12.3226H117.181V27.193H112.493V7.7085H125.58C128.828 7.78172 131.489 10.4427 131.489 13.7395C131.489 16.6212 129.439 19.0136 126.728 19.5996L131.025 23.8972C131.929 24.8005 131.929 26.2653 131.025 27.1695L131.025 27.1667Z" fill="#F9FAFF"/>
<path d="M140.986 9.97731V27.3379H136.273V9.97731C136.395 8.78109 137.396 7.82898 138.617 7.82898C139.838 7.82898 140.863 8.78109 140.961 9.97731H140.986Z" fill="#F9FAFF"/>
<path d="M155.024 27.2402C154.194 27.2402 153.437 26.7764 153.047 26.0196L145.331 11.1003C144.77 9.97733 145.185 8.58578 146.332 7.99891C147.455 7.413 148.847 7.85244 149.433 8.97544L155.22 20.1829L161.812 8.8778C162.471 7.77919 163.887 7.413 164.987 8.04775C166.085 8.70689 166.451 10.0984 165.817 11.2224L157.099 26.1172C156.684 26.8252 155.903 27.2402 155.097 27.2402H155.024Z" fill="#F9FAFF"/>
<path d="M174.851 9.97731V27.3379H170.138V9.97731C170.26 8.78109 171.261 7.82898 172.482 7.82898C173.702 7.82898 174.728 8.78109 174.825 9.97731H174.851Z" fill="#F9FAFF"/>
<path d="M179.343 17.1077C179.343 11.3941 183.958 6.75464 189.647 6.75464C195.336 6.75464 200 11.3941 200 17.1077C200 22.8213 195.361 27.4119 189.647 27.4119C183.933 27.4119 179.343 22.7969 179.343 17.1077ZM183.86 17.1077C183.86 20.2823 186.448 22.8945 189.647 22.8945C192.846 22.8945 195.434 20.2823 195.434 17.1077C195.434 13.933 192.846 11.3208 189.647 11.3208C186.448 11.3208 183.86 13.9086 183.86 17.1077Z" fill="#F9FAFF"/>
<path d="M21.2931 38.937L18.1495 42.2909C18.0208 42.4281 17.8387 42.4281 17.71 42.2909L14.5664 38.937C14.4546 38.8175 14.4068 38.6195 14.4453 38.4336L17.5889 23.4336C17.6856 22.9707 18.173 22.9707 18.2706 23.4336L21.4143 38.4336C21.4528 38.6186 21.4058 38.8167 21.2931 38.937Z" fill="#F9FAFF"/>
<path d="M17.5501 14.0171L14.0218 17.5453C13.8117 17.7554 13.8117 18.0961 14.0218 18.3062L17.5501 21.8344C17.7602 22.0446 18.1008 22.0446 18.311 21.8344L21.8392 18.3062C22.0493 18.0961 22.0493 17.7554 21.8392 17.5453L18.311 14.0171C18.1008 13.807 17.7602 13.807 17.5501 14.0171Z" fill="#F9FAFF"/>
<path d="M17.9281 0.00093845C8.04358 0.00093845 0.0642406 7.92581 0.000390982 17.8094C-0.05313 26.0047 5.39381 32.9361 12.8671 35.1314C13.1722 35.2206 13.4886 35.0281 13.5534 34.7172L14.5966 29.7342C14.6548 29.4544 14.4924 29.1775 14.221 29.0872C9.50461 27.5221 6.11494 23.0516 6.17222 17.7972C6.24075 11.4535 11.4004 6.27042 17.744 6.17369C24.3215 6.07322 29.6839 11.3737 29.6839 17.9286C29.6839 23.1258 26.313 27.5343 21.637 29.0872C21.3666 29.1775 21.2041 29.4536 21.2623 29.7325L22.3046 34.705C22.3712 35.0225 22.6943 35.2189 23.0051 35.1267C30.4333 32.9369 35.8558 26.0657 35.8558 17.9277C35.8558 8.02628 27.8294 0 17.9281 0V0.00093845Z" fill="#F9FAFF"/>
</g>
<defs>
<clipPath id="clip0_1_172">
<rect width="200" height="42.5" fill="white"/>
</clipPath>
</defs>
</svg>
